# xmcd CD database file
#
# Track frame offsets:
#        150
#        12110
#        25858
#        37390
#        47703
#        60740
#        71695
#        83986
#        98082
#        108305
#        121663
#        134546
#        148038
#        160511
#        171472
#        181591
#        199630
#        217013
#        231402
#        244745
#        256027
#
# Disc length: 3555 seconds
#
# Revision: 0
# Processed by: cddbd v1.5.2PL0 Copyright (c) Steve Scherf et al.
# Submitted via: CUERipper 2.1.5
#
DISCID=250de115
DTITLE=Tammy Wynette - Another Lonely Song and Woman To Woman
DYEAR=1974
DGENRE=Country
TTITLE0=Another Lonely Song
TTITLE1=Crying Steel Guitar
TTITLE2=What My Thoughts Do All The Time
TTITLE3=Stayin' Home Woman
TTITLE4=Satin Sheets
TTITLE5=Homecoming
TTITLE6=Help Me Make It Through The Night
TTITLE7=Keep Me In Mind
TTITLE8=Oh, How I Miss Him
TTITLE9=With Child
TTITLE10=One Final Stand
TTITLE11=Woman To Woman
TTITLE12=Right Here In Your Arms
TTITLE13=What's A Little Rain?
TTITLE14=This Time I Almost Made It
TTITLE15=Please Come To Boston
TTITLE16=I Don't Think About Him No More
TTITLE17=For The Kids
TTITLE18=The Woman I Am
TTITLE19=Touching Love
TTITLE20=I've Been Loved Before (But Not Like This)
EXTD=
EXTT0=
EXTT1=
EXTT2=
EXTT3=
EXTT4=
EXTT5=
EXTT6=
EXTT7=
EXTT8=
EXTT9=
EXTT10=
EXTT11=
EXTT12=
EXTT13=
EXTT14=
EXTT15=
EXTT16=
EXTT17=
EXTT18=
EXTT19=
EXTT20=
PLAYORDER=
